<svg width="100" height="30" viewBox="0 0 100 30" fill="none" xmlns="http://www.w3.org/2000/svg">
<rect width="100" height="30" fill="#E50914"/>
<path d="M11.69 22.84C10.12 23.36 8.52 23.63 6.94 23.63C3.12 23.63 0.55 21.08 0.55 17.26C0.55 13.44 3.12 10.89 6.94 10.89C8.52 10.89 10.12 11.16 11.69 11.68L12.59 10.02C10.74 9.38 8.84 9.06 6.94 9.06C2.19 9.06 0 11.25 0 17.26C0 23.28 2.19 25.47 6.94 25.47C8.84 25.47 10.74 25.15 12.59 24.51L11.69 22.84ZM20.73 23.28C19.78 23.63 18.77 23.8 17.72 23.8C15.44 23.8 13.9 22.28 13.9 19.98V14.54H16.4V19.91C16.4 20.89 16.92 21.36 17.72 21.36C18.52 21.36 19.04 20.89 19.04 19.91V14.54H21.54V19.98C21.54 22.28 20.73 23.28 20.73 23.28ZM29.28 23.8V14.54H31.78V23.8H29.28ZM35.03 23.8V14.54H37.53V23.8H35.03ZM43.37 23.8V14.54H45.87V23.8H43.37ZM51.72 23.8V14.54H54.22V23.8H51.72ZM60.06 23.8V14.54H62.56V23.8H60.06ZM67.53 23.8V14.54H70.03V23.8H67.53ZM75.87 23.8V14.54H78.37V23.8H75.87ZM84.22 23.8V14.54H86.72V23.8H84.22ZM92.56 23.8V14.54H95.06V23.8H92.56Z" fill="white"/>
</svg> 